<svg xmlns="http://www.w3.org/2000/svg" width="1000px" height="500px" viewBox="0 0 189.326 58.113">
  <g id="Travel_Memories_Logo_-_Blue_-_Horizontal" data-name="Travel Memories Logo - Blue - Horizontal" transform="translate(0 -0.007)">
    <path id="Path_1" data-name="Path 1" d="M25.352,90.86l-.218.194A132.2,132.2,0,0,1,13.142,74.179l10.483-3.772C24.2,80.551,25.352,90.86,25.352,90.86Z" transform="translate(-6.148 -32.933)" fill="#5ebf88"/>
    <path id="Path_2" data-name="Path 2" d="M56.065,74.179A131.948,131.948,0,0,1,44.074,91.054l-.215-.194s1.152-10.309,1.726-20.453Z" transform="translate(-20.517 -32.933)" fill="#5ebf88"/>
    <path id="Path_3" data-name="Path 3" d="M42.545,21.279c0,4.7-1.847,10.059-4.452,15.284L25.334,25.288c-.252-9.5-1.683-18.124-4.063-18.124s-3.808,8.622-4.06,18.124L4.45,36.561C1.845,31.339,0,25.978,0,21.279a21.272,21.272,0,0,1,42.545,0Z" transform="translate(0)" fill="#0768b3"/>
  </g>
</svg>
