<svg xmlns="http://www.w3.org/2000/svg" width="9.772" height="19.345" viewBox="0 0 9.772 19.345">
  <g id="XMLID_834_" transform="translate(-76.703)">
    <path id="XMLID_835_" d="M77.015,10.3h2.121v8.73a.312.312,0,0,0,.312.312h3.6a.312.312,0,0,0,.312-.312V10.344h2.438a.312.312,0,0,0,.31-.276l.37-3.214a.312.312,0,0,0-.31-.348H83.355V4.492c0-.607.327-.915.972-.915h1.836a.312.312,0,0,0,.312-.312V.314A.312.312,0,0,0,86.163,0h-2.53c-.018,0-.057,0-.116,0a4.848,4.848,0,0,0-3.17,1.2A3.325,3.325,0,0,0,79.241,4.15V6.506H77.015a.312.312,0,0,0-.312.312V9.991A.312.312,0,0,0,77.015,10.3Z" fill="#fff"/>
  </g>
</svg>
