<svg xmlns="http://www.w3.org/2000/svg" width="34.375" height="34.375" viewBox="0 0 34.375 34.375">
  <g id="Group_189" data-name="Group 189" transform="translate(-9.687 -9.688)">
    <g id="whatsapp" transform="translate(8.545 9.42)">
      <g id="Group_188" data-name="Group 188" transform="translate(1.142 0.267)">
        <path id="Path_147" data-name="Path 147" d="M18.332,35.519A17.145,17.145,0,0,1,9.214,32.9a.716.716,0,0,0-.38-.109.728.728,0,0,0-.211.032L2.179,34.811C2.652,33.083,3.5,29.992,4,28.273a.719.719,0,0,0-.087-.588,17.189,17.189,0,1,1,14.422,7.835Z" transform="translate(-1.144 -1.144)" fill="#5ebf88"/>
      </g>
    </g>
    <path id="Path_148" data-name="Path 148" d="M22.88,18.77c-.743-.413-1.376-.826-1.837-1.128-.353-.23-.607-.4-.794-.49a.914.914,0,0,0-1.068.076.4.4,0,0,0-.05.061,5.657,5.657,0,0,1-1.457,1.633,9.69,9.69,0,0,1-2.474-1.6,5.358,5.358,0,0,1-1.958-2.473c.73-.751.992-1.223.992-1.761a11.389,11.389,0,0,0-1.526-3.1c-.235-.234-.763-.271-1.571-.11a.406.406,0,0,0-.206.11c-.1.1-2.386,2.431-1.3,5.258,1.194,3.1,4.257,6.71,8.164,7.3a8.465,8.465,0,0,0,1.25.1,3.7,3.7,0,0,0,4.036-3.45A.4.4,0,0,0,22.88,18.77Z" transform="translate(10.013 10.537)" fill="#fff"/>
  </g>
</svg>
